# xmcd
#
# Track frame offsets: 
#        150
#        2950
#        22276
#        37020
#        52200
#        70998
#        86663
#        102884
#        123530
#        138885
#        162215
#        175513
#
# Disc length: 2658 seconds
#
# Revision: 0
# Processed by: cddbd v1.5.2PL0 Copyright (c) Steve Scherf et al.
# Submitted via: ExactAudioCopy v1.0b1
#
DISCID=a50a600c
DTITLE=Big Bad Voodoo Daddy - Rattle Them Bones
DYEAR=2012
DGENRE=Swing
TTITLE0=The Adventures Of...
TTITLE1=Diga Diga Do
TTITLE2=The Jitters
TTITLE3=Let It Roll Again
TTITLE4=It Only Took A Kiss [featuring Meaghan Smith]
TTITLE5=She's Always Right (I'm Never Wrong)
TTITLE6=Why Me?
TTITLE7=Devil's Dance
TTITLE8=It's Lonely At The Top
TTITLE9=Still In The Mood
TTITLE10=Gimme That Wine
TTITLE11=5-10-15 Times
EXTD=
EXTT0=
EXTT1=
EXTT2=
EXTT3=
EXTT4=
EXTT5=
EXTT6=
EXTT7=
EXTT8=
EXTT9=
EXTT10=
EXTT11=
PLAYORDER=
